<svg xmlns="http://www.w3.org/2000/svg" width="512" height="512" viewBox="0 0 512 512" data-svgdocument="" id="_8gNwAzlVR_AdJZYYCAbw7" class="fl-svgdocument" x="0" y="0" style="overflow: visible;" xmlns:xlink="http://www.w3.org/1999/xlink"><defs id="_p9WucsL8EOdJO-7h8Njul" transform="matrix(1.0787928239837292, 0, 0, 1.0787928239837292, -22.681983076463172, -12.879785151758316)"></defs><g id="_nrOuaYBkixfgsnqHctK-6" transform="matrix(2.0388874247137796, 0, 0, 2.0388874247137796, -285.57310999968144, -251.28600028533742)"><polygon id="_Le81KeJMyim5HhkGRo_8s" points="71.7 0 0 184.34 71.7 368.69 143.41 184.34 71.7 0" fill="#78c0ff" transform="matrix(0.2454732060432434, 0.14752724766731262, -0.09198401123285294, 0.1531241536140442, 275.15728759765625, 195.073974609375)"></polygon><polygon id="_KyVHkjgHPOo2OCs3A8YTO" points="71.7 0 0 184.34 71.7 368.69 143.41 184.34 71.7 0" fill="#96ceff" transform="matrix(0.2454732060432434, 0.14752724766731262, -0.09198401123285294, 0.1531241536140442, 239.87240600585938, 215.75820922851562)"></polygon><polygon id="_pjM8kLSrLAKZOOmCmc9wb" points="71.7 0 0 184.34 71.7 368.69 143.41 184.34 71.7 0" fill="#4c96d7" transform="matrix(0.2454732060432434, 0.14752724766731262, -0.09198401123285294, 0.1531241536140442, 310.442138671875, 176.82318115234375)"></polygon><polygon id="_tP6nn8Njsk-Uf9etBc-kb" points="71.7 0 0 184.34 71.7 368.69 143.41 184.34 71.7 0" fill="#2f7bbd" transform="matrix(0.2454732060432434, 0.14752724766731262, -0.09198401123285294, 0.1531241536140442, 273.9405517578125, 157.9640350341797)"></polygon><path id="_lUta7DnjQ8n3tR2aKOF-X" fill="#5eb4ff" d="M97.622,30.671c-0.001-0.004-0.003-0.008-0.004-0.012c-0.003-0.012-0.011-0.022-0.015-0.034   c-0.002-0.007-0.006-0.014-0.009-0.021c-0.021-0.06-0.042-0.119-0.074-0.174c-0.014-0.024-0.034-0.045-0.051-0.068   c-0.002-0.003-0.004-0.006-0.007-0.009c-0.016-0.022-0.03-0.044-0.049-0.065c-0.018-0.021-0.033-0.044-0.053-0.063   c-0.023-0.023-0.053-0.041-0.079-0.062c-0.037-0.03-0.071-0.064-0.113-0.089c-0.006-0.003-0.013-0.004-0.019-0.008   c-0.005-0.003-0.009-0.007-0.014-0.01L73.948,17.412c-0.075-0.055-0.157-0.101-0.245-0.133L50.477,4.624   c-0.299-0.163-0.659-0.163-0.957,0L26.193,17.337c-0.321,0.175-0.521,0.512-0.521,0.878v24.838L2.863,55.48   c-0.033,0.02-0.06,0.045-0.09,0.066c-0.027,0.02-0.055,0.037-0.08,0.059c-0.088,0.076-0.164,0.164-0.22,0.264   c-0.003,0.004-0.007,0.008-0.01,0.012c-0.006,0.012-0.006,0.025-0.012,0.037c-0.045,0.092-0.074,0.189-0.09,0.291   c-0.005,0.031-0.01,0.059-0.012,0.09c-0.002,0.02-0.009,0.039-0.009,0.061v25.426c0,0.367,0.2,0.703,0.521,0.879l23.33,12.713   c0.047,0.025,0.097,0.039,0.146,0.057c0.027,0.01,0.052,0.023,0.079,0.031c0.084,0.021,0.168,0.033,0.253,0.033l0,0h0.001   c0.085,0,0.17-0.012,0.252-0.033c0.003,0,0.006,0,0.009-0.002c0.019-0.004,0.035-0.016,0.053-0.021   c0.01-0.004,0.019-0.008,0.028-0.012c0.046-0.018,0.093-0.029,0.137-0.053l69.986-38.141c0.321-0.174,0.521-0.512,0.521-0.877   V30.934C97.658,30.844,97.646,30.755,97.622,30.671z M50.998,31.527l21.334-11.628v23.154L50.998,54.676V31.527z M50.998,56.953   L72.332,45.33v23.146L50.998,80.104V56.953z M27.672,69.666l21.326-11.623v23.15L27.672,92.814V69.666z M95.658,55.766   L74.332,67.387V44.24l21.326-11.623V55.766z" transform="matrix(1.5143901109695435, 0, 0, 1.5143901109695435, 182.0546417236328, 139.9714813232422)"></path></g><path text="ARAA" text-anchor="middle" font-size="100" letter-spacing="0" side="left" offset="0.5" dx="0" dy="0" space="preserve" href="" font-family="Bungee" font-scale="contain" transform="matrix(1.1854287385940552, 0, 0, 1.1854287385940552, 255.466552734375, 464)" x="0" y="0" fill="#042440" data-fl-textpath="" id="_bnPxAsfJl7fo1krj2xu0z" d="M-77.15-51L-77.15-51L-81.85000000000001-35.8L-66.15-35.8L-70.85000000000001-51Q-71.25-51.9 -71.7-52.3Q-72.15-52.7 -72.75-52.7L-72.75-52.7L-75.25-52.7Q-75.85000000000001-52.7 -76.30000000000001-52.3Q-76.75-51.9 -77.15-51ZM-82.85000000000001-17.6L-82.85000000000001-3.6Q-82.85000000000001-1.7 -83.7-0.85Q-84.55000000000001 0 -86.45 0L-86.45 0L-101.15 0Q-103.05000000000001 0 -103.9-0.85Q-104.75-1.7 -104.75-3.6L-104.75-3.6L-104.75-30Q-104.75-33 -103.80000000000001-36.9Q-102.85000000000001-40.8 -100.85000000000001-46L-100.85000000000001-46L-92.15-68.7Q-91.55000000000001-70.4 -90.30000000000001-71.2Q-89.05000000000001-72 -87.05000000000001-72L-87.05000000000001-72L-60.150000000000006-72Q-58.25000000000001-72 -57.00000000000001-71.2Q-55.75000000000001-70.4 -55.150000000000006-68.7L-55.150000000000006-68.7L-46.45-46Q-44.45-40.8 -43.5-36.9Q-42.55000000000001-33 -42.55000000000001-30L-42.55000000000001-30L-42.55000000000001-3.6Q-42.55000000000001-1.7 -43.400000000000006-0.85Q-44.25 0 -46.150000000000006 0L-46.150000000000006 0L-61.25000000000001 0Q-63.25000000000001 0 -64.2-0.85Q-65.15-1.7 -65.15-3.6L-65.15-3.6L-65.15-17.6L-82.85000000000001-17.6ZM-0.15000000000000568-54L-7.650000000000006-54L-7.650000000000006-41.2L-0.15000000000000568-41.2Q 2.4499999999999957-41.2  3.3499999999999943-42.55Q 4.249999999999993-43.9  4.249999999999993-45.9L 4.249999999999993-45.9L 4.249999999999993-49.3Q 4.249999999999993-51.3  3.3499999999999943-52.65Q 2.4499999999999957-54 -0.15000000000000568-54L-0.15000000000000568-54ZM-11.250000000000007 0L-11.250000000000007 0L-26.650000000000006 0Q-28.550000000000004 0 -29.400000000000006-0.85Q-30.250000000000007-1.7 -30.250000000000007-3.6L-30.250000000000007-3.6L-30.250000000000007-68.4Q-30.250000000000007-70.3 -29.400000000000006-71.15Q-28.550000000000004-72 -26.650000000000006-72L-26.650000000000006-72L 6.6499999999999915-72Q 17.849999999999994-72  22.099999999999994-67.35Q 26.349999999999994-62.7  26.349999999999994-55.3L 26.349999999999994-55.3L 26.349999999999994-50.7Q 26.349999999999994-46.5  25.099999999999994-43.55Q 23.849999999999994-40.6  20.749999999999993-39.3L 20.749999999999993-39.3Q 26.14999999999999-38.7  29.5-34.9Q 32.849999999999994-31.1  32.849999999999994-24.8L 32.849999999999994-24.8L 32.849999999999994-3.6Q 32.849999999999994-1.7  32-0.85Q 31.14999999999999 0  29.25 0L 29.25 0L 13.749999999999993 0Q 11.849999999999994 0  10.999999999999993-0.85Q 10.149999999999991-1.7  10.149999999999991-3.6L 10.149999999999991-3.6L 10.149999999999991-18.9Q 10.149999999999991-21.1  9.299999999999997-22.15Q 8.449999999999996-23.2  6.349999999999994-23.2L 6.349999999999994-23.2L-7.650000000000006-23.2L-7.650000000000006-3.6Q-7.650000000000006-1.7 -8.500000000000007-0.85Q-9.350000000000005 0 -11.250000000000007 0ZM 70.14999999999999-51L 70.14999999999999-51L 65.44999999999999-35.8L 81.14999999999999-35.8L 76.44999999999999-51Q 76.04999999999998-51.9  75.6-52.3Q 75.14999999999999-52.7  74.54999999999998-52.7L 74.54999999999998-52.7L 72.04999999999998-52.7Q 71.44999999999999-52.7  71-52.3Q 70.54999999999998-51.9  70.14999999999999-51ZM 64.44999999999999-17.6L 64.44999999999999-3.6Q 64.44999999999999-1.7  63.599999999999994-0.85Q 62.74999999999999 0  60.849999999999994 0L 60.849999999999994 0L 46.14999999999999 0Q 44.24999999999999 0  43.39999999999999-0.85Q 42.54999999999999-1.7  42.54999999999999-3.6L 42.54999999999999-3.6L 42.54999999999999-30Q 42.54999999999999-33  43.49999999999999-36.9Q 44.44999999999999-40.8  46.44999999999999-46L 46.44999999999999-46L 55.14999999999999-68.7Q 55.74999999999999-70.4  56.99999999999999-71.2Q 58.24999999999999-72  60.24999999999999-72L 60.24999999999999-72L 87.14999999999999-72Q 89.04999999999998-72  90.29999999999998-71.2Q 91.54999999999998-70.4  92.14999999999999-68.7L 92.14999999999999-68.7L 100.85-46Q 102.85-40.8  103.8-36.9Q 104.74999999999999-33  104.74999999999999-30L 104.74999999999999-30L 104.74999999999999-3.6Q 104.74999999999999-1.7  103.89999999999999-0.85Q 103.05 0  101.14999999999999 0L 101.14999999999999 0L 86.04999999999998 0Q 84.04999999999998 0  83.1-0.85Q 82.14999999999999-1.7  82.14999999999999-3.6L 82.14999999999999-3.6L 82.14999999999999-17.6L 64.44999999999999-17.6Z"></path></svg>